<?xml version="1.0" encoding="utf-8"?>
<!-- Generator: Adobe Illustrator 24.0.1, SVG Export Plug-In . SVG Version: 6.00 Build 0)  -->
<svg version="1.1" id="Layer_1" xmlns="http://www.w3.org/2000/svg" xmlns:xlink="http://www.w3.org/1999/xlink" x="0px" y="0px"
	 viewBox="0 0 48 48" style="enable-background:new 0 0 48 48;" xml:space="preserve">
<style type="text/css">
	.st0{fill:none;stroke:#FCFCFA;stroke-width:2;stroke-linecap:round;stroke-linejoin:round;}
</style>
<title>development</title>
<g id="Layer_2_1_">
	<g id="Layer_1-2">
		<g id="development">
			<path class="st0" d="M45.1,29.5L44,26.7c-0.1-0.3-0.1-0.6,0.2-0.8l0.3-0.3c0.3-0.3,0.3-0.7,0-1l-3.2-3.2c-0.3-0.3-0.7-0.3-1,0
				L40,21.7c-0.2,0.2-0.5,0.3-0.8,0.2l-2.8-1.2c-0.3-0.1-0.5-0.4-0.5-0.7v-0.4c0-0.4-0.3-0.7-0.7-0.7l0,0h-4.5
				c-0.4,0-0.7,0.3-0.7,0.7V20c0,0.3-0.2,0.6-0.5,0.7l-2.8,1.2c-0.3,0.1-0.6,0.1-0.8-0.2l-0.3-0.3c-0.3-0.3-0.7-0.3-1,0l-3.1,3.1
				c-0.3,0.3-0.3,0.7,0,1l0.3,0.3c0.2,0.2,0.3,0.5,0.2,0.8l-1.2,2.8c-0.1,0.3-0.4,0.5-0.7,0.5h-0.4c-0.4,0-0.7,0.3-0.7,0.7v4.5
				c0,0.4,0.3,0.7,0.7,0.7c0,0,0,0,0,0H20c0.3,0,0.6,0.2,0.7,0.5l1.2,2.8c0.1,0.3,0.1,0.6-0.2,0.8l-0.3,0.3c-0.3,0.3-0.3,0.7,0,1
				l3.1,3.1c0.3,0.3,0.7,0.3,1,0l0.3-0.3c0.2-0.2,0.5-0.3,0.8-0.2l2.8,1.2c0.3,0.1,0.5,0.4,0.5,0.7v0.4c0,0.4,0.3,0.7,0.7,0.7
				c0,0,0,0,0,0h4.5c0.4,0,0.7-0.3,0.7-0.7v0v-0.4c0-0.3,0.2-0.6,0.5-0.7l2.8-1.1c0.3-0.1,0.6-0.1,0.8,0.2l0.3,0.3
				c0.3,0.3,0.7,0.3,1,0l3.1-3.1c0.3-0.3,0.3-0.7,0-1L44.1,40c-0.2-0.2-0.3-0.5-0.2-0.8l1.2-2.8c0.1-0.3,0.4-0.5,0.7-0.5h0.4
				c0.4,0,0.7-0.3,0.7-0.7v0v-4.5c0-0.4-0.3-0.7-0.7-0.7l0,0h-0.4C45.5,29.9,45.2,29.7,45.1,29.5z"/>
			<circle class="st0" cx="32.9" cy="32.9" r="7.4"/>
			<ellipse class="st0" cx="19.5" cy="8.4" rx="18.5" ry="7.4"/>
			<path class="st0" d="M21,47c-0.5,0-1,0-1.5,0C9.3,47,1,43,1,38.1V27.7"/>
			<path class="st0" d="M1,17.3v10.4c0,4.2,6,7.7,14.1,8.6"/>
			<line class="st0" x1="38.1" y1="8.4" x2="38.1" y2="15.8"/>
			<path class="st0" d="M16.4,26.1C7.7,25.4,1,21.7,1,17.3V8.4"/>
		</g>
	</g>
</g>
</svg>
