<?xml version="1.0" encoding="utf-8"?>
<!-- Generator: Adobe Illustrator 24.0.1, SVG Export Plug-In . SVG Version: 6.00 Build 0)  -->
<svg version="1.1" id="Layer_1" xmlns="http://www.w3.org/2000/svg" xmlns:xlink="http://www.w3.org/1999/xlink" x="0px" y="0px"
	 viewBox="0 0 48 48" style="enable-background:new 0 0 48 48;" xml:space="preserve">
<style type="text/css">
	.st0{fill:none;stroke:#0F1E3B;stroke-width:2;stroke-linecap:square;stroke-linejoin:round;}
	.st1{fill:none;stroke:#0F1E3B;stroke-width:2;stroke-linecap:round;stroke-linejoin:round;}
</style>
<title>form</title>
<g id="Layer_2_1_">
	<g id="Layer_1-2">
		<g id="form">
			<path class="st0" d="M26.2,39.6H2.5c-0.8,0-1.5-0.7-1.5-1.5l0,0V2.5C1,1.7,1.7,1,2.5,1h43C46.3,1,47,1.6,47,2.4l0,0V38
				c0,0.8-0.7,1.5-1.5,1.5h-3"/>
			<line class="st1" x1="1" y1="9.2" x2="47" y2="9.2"/>
			<rect x="15.8" y="14.4" class="st1" width="26.7" height="4.4"/>
			<polyline class="st0" points="26.2,33.7 15.8,33.7 15.8,23.3 42.5,23.3 42.5,32.2 			"/>
			<line class="st1" x1="5.4" y1="23.3" x2="11.4" y2="23.3"/>
			<line class="st1" x1="5.4" y1="14.4" x2="11.4" y2="14.4"/>
			<polygon class="st1" points="29.2,27 29.2,43.3 33.7,39.6 38.1,47 41.8,44.8 37.3,37.3 42.5,35.9 			"/>
		</g>
	</g>
</g>
</svg>
