<?xml version="1.0" encoding="utf-8"?>
<!-- Generator: Adobe Illustrator 24.0.1, SVG Export Plug-In . SVG Version: 6.00 Build 0)  -->
<svg version="1.1" id="Layer_1" xmlns="http://www.w3.org/2000/svg" xmlns:xlink="http://www.w3.org/1999/xlink" x="0px" y="0px"
	 viewBox="0 0 589.8 361.2" style="enable-background:new 0 0 589.8 361.2;" xml:space="preserve">
<style type="text/css">
	.st0{fill:#8DC487;}
</style>
<path class="st0" d="M315.9,328.1c-4,0-8-1.1-11.5-3.1l-36.6-21.7c-5.5-3.1-2.8-4.1-1-4.8c7.3-2.6,8.8-3.1,16.6-7.6
	c0.8-0.5,1.9-0.3,2.7,0.2l28.1,16.7c1,0.5,2.5,0.5,3.4,0l109.7-63.3c1-0.6,1.7-1.8,1.7-3V115c0-1.3-0.7-2.4-1.7-3L317.7,48.7
	c-1-0.6-2.4-0.6-3.4,0L204.6,112c-1.1,0.6-1.7,1.8-1.7,3v126.6c0,1.2,0.7,2.4,1.7,2.9l30,17.4c16.3,8.2,26.3-1.5,26.3-11.1v-125
	c0-1.8,1.4-3.2,3.2-3.2H278c1.7,0,3.2,1.4,3.2,3.2v125c0,21.8-11.9,34.2-32.5,34.2c-6.3,0-11.3,0-25.3-6.9l-28.8-16.6
	c-7.1-4.1-11.5-11.8-11.5-20V115c0-8.2,4.4-15.9,11.5-20l109.8-63.4c6.9-3.9,16.2-3.9,23.1,0L437.2,95c7.1,4.1,11.5,11.8,11.5,20
	v126.6c0,8.2-4.4,15.9-11.5,20L327.5,325C324,327,320,328.1,315.9,328.1"/>
<path class="st0" d="M349.8,240.9c-48,0-58.1-22-58.1-40.5c0-1.8,1.4-3.2,3.2-3.2h14.2c1.6,0,2.9,1.1,3.1,2.7
	c2.1,14.4,8.5,21.7,37.5,21.7c23.1,0,33-5.2,33-17.5c0-7.1-2.8-12.3-38.7-15.8c-30-3-48.6-9.6-48.6-33.6c0-22.1,18.7-35.3,50-35.3
	c35.1,0,52.5,12.2,54.7,38.4c0.1,0.9-0.2,1.8-0.9,2.4c-0.6,0.6-1.5,1-2.3,1h-14.3c-1.5,0-2.8-1-3.1-2.5c-3.4-15.2-11.7-20-34.3-20
	c-25.2,0-28.2,8.8-28.2,15.4c0,8,3.5,10.3,37.5,14.8c33.7,4.5,49.7,10.8,49.7,34.5c0,23.9-19.9,37.6-54.7,37.6 M483.3,106.7h3.7
	c3,0,3.6-2.1,3.6-3.4c0-3.2-2.2-3.2-3.5-3.2h-3.8L483.3,106.7z M478.8,96.3h8.2c2.8,0,8.3,0,8.3,6.3c0,4.4-2.8,5.3-4.5,5.8
	c3.3,0.2,3.5,2.4,3.9,5.4c0.2,1.9,0.6,5.2,1.2,6.3h-5c-0.1-1.1-0.9-7.1-0.9-7.5c-0.3-1.3-0.8-2-2.5-2h-4.1v9.5h-4.6V96.3z
	 M469,108.1c0,9.8,7.9,17.8,17.7,17.8c9.8,0,17.8-8.1,17.8-17.8c0-9.9-8-17.7-17.8-17.7C477.1,90.5,469,98.2,469,108.1 M507.9,108.2
	c0,11.6-9.5,21.1-21.1,21.1c-11.5,0-21.1-9.4-21.1-21.1c0-12,9.8-21.1,21.1-21.1C498.2,87,507.9,96.2,507.9,108.2"/>
</svg>
