<?xml version="1.0" encoding="utf-8"?>
<!-- Generator: Adobe Illustrator 24.0.1, SVG Export Plug-In . SVG Version: 6.00 Build 0)  -->
<svg version="1.1" id="Layer_1" xmlns="http://www.w3.org/2000/svg" xmlns:xlink="http://www.w3.org/1999/xlink" x="0px" y="0px"
	 viewBox="0 0 48 48" style="enable-background:new 0 0 48 48;" xml:space="preserve">
<style type="text/css">
	.st0{fill:#0F1E3B;}
</style>
<title>tools</title>
<g id="Layer_2_1_">
	<g id="Layer_1-2">
		<g id="tools">
			<path class="st0" d="M27,48h-6c-1.4,0-2.5-1.1-2.5-2.5v-1c0-0.2-0.1-0.4-0.3-0.5l-4.3-1.8c-0.2-0.1-0.4,0-0.5,0.1l-0.7,0.7
				c-1,1-2.5,1-3.5,0c0,0,0,0,0,0l-4.2-4.2c-1-1-1-2.5,0-3.5c0,0,0,0,0,0l0.7-0.7c0.1-0.1,0.2-0.3,0.1-0.5L4,29.8
				c-0.1-0.2-0.2-0.3-0.4-0.3h-1c-1.4,0-2.5-1-2.6-2.4c0,0,0,0,0-0.1v-6c0-1.4,1.1-2.5,2.5-2.5h1c0.2,0,0.4-0.1,0.4-0.3l1.8-4.3
				c0.1-0.2,0-0.4-0.1-0.5l-0.7-0.7c-1-1-1-2.5,0-3.5c0,0,0,0,0,0l4.2-4.2c0.5-0.5,1.1-0.7,1.8-0.7l0,0c0.7,0,1.3,0.3,1.8,0.7
				l0.7,0.7c0.1,0.1,0.3,0.2,0.5,0.1L18.3,4c0.2-0.1,0.3-0.2,0.3-0.4v-1c0-1.4,1-2.5,2.4-2.6c0,0,0,0,0.1,0h6c1.4,0,2.5,1.1,2.5,2.5
				v1c0,0.2,0.1,0.4,0.3,0.4l4.3,1.8c0.2,0.1,0.4,0,0.5-0.1l0.7-0.7c1-0.9,2.5-0.9,3.5,0l4.2,4.2c1,1,1,2.5,0,3.5c0,0,0,0,0,0
				l-0.7,0.7c-0.1,0.1-0.2,0.3-0.1,0.5l1.7,4.4c0.1,0.2,0.2,0.3,0.4,0.3h1c1.4,0,2.5,1.1,2.5,2.4c0,0,0,0,0,0v6
				c0,1.4-1.1,2.5-2.5,2.5h-1c-0.2,0-0.4,0.1-0.4,0.3c-0.2,0.5-0.8,0.8-1.3,0.5c0,0,0,0,0,0c-0.5-0.2-0.7-0.8-0.5-1.3
				c0.4-0.9,1.3-1.5,2.3-1.5h1c0.3,0,0.5-0.2,0.5-0.5v-6c0-0.3-0.2-0.5-0.5-0.5h-1c-1,0-1.9-0.6-2.3-1.5l-1.8-4.3
				c-0.4-0.9-0.2-2,0.5-2.7l0.7-0.7c0.2-0.2,0.2-0.5,0-0.7c0,0,0,0,0,0l-4.2-4.2c-0.1-0.1-0.2-0.1-0.3-0.2c-0.1,0-0.3,0.1-0.3,0.1
				L36,7.1c-0.7,0.7-1.8,0.9-2.7,0.5L29,5.8c-0.9-0.4-1.5-1.3-1.5-2.3v-1C27.5,2.3,27.3,2,27,2c0,0,0,0,0,0h-6
				c-0.3,0-0.5,0.2-0.5,0.5v1c0,1-0.6,2-1.5,2.3l-4.4,1.8c-0.9,0.4-2,0.2-2.6-0.5l-0.7-0.7c-0.1-0.1-0.2-0.1-0.4-0.2l0,0
				c-0.1,0-0.3,0.1-0.3,0.2l-4.2,4.2c-0.2,0.2-0.2,0.5,0,0.7L7.1,12c0.7,0.7,0.9,1.8,0.5,2.7L5.8,19c-0.4,0.9-1.3,1.5-2.3,1.5h-1
				C2.3,20.5,2,20.7,2,21c0,0,0,0,0,0v6c0,0.3,0.2,0.5,0.5,0.5h1c1,0,2,0.6,2.3,1.5l1.8,4.3c0.4,0.9,0.2,2-0.5,2.7l-0.7,0.7
				c-0.2,0.2-0.2,0.5,0,0.7l4.2,4.2c0.2,0.2,0.5,0.2,0.7,0l0.7-0.7c0.7-0.7,1.8-0.9,2.7-0.5l4.3,1.8c0.9,0.4,1.5,1.3,1.5,2.3v1
				c0,0.3,0.2,0.5,0.5,0.5h6c0.3,0,0.5-0.2,0.5-0.5v-1c0-1,0.6-1.9,1.5-2.3c0.5-0.2,1.1,0,1.3,0.5c0,0,0,0,0,0
				c0.2,0.5,0,1.1-0.5,1.3c-0.2,0.1-0.3,0.3-0.3,0.5v1C29.5,46.9,28.4,48,27,48z"/>
			<path class="st0" d="M24,37.6c-7.5,0-13.6-6.2-13.6-13.7c0-1.3,0.2-2.6,0.6-3.9c0.1-0.3,0.4-0.6,0.7-0.7c0.3-0.1,0.7,0,0.9,0.3
				L19,26h3.1l3.9-3.9V19l-6.3-6.4c-0.2-0.3-0.3-0.6-0.3-0.9c0.1-0.3,0.3-0.6,0.7-0.7c7.2-2.2,14.8,1.8,17,9c1.1,3.5,0.7,7.2-1,10.4
				c-0.3,0.5-0.9,0.7-1.4,0.4s-0.7-0.9-0.4-1.4c3-5.7,0.9-12.7-4.8-15.7c-2.2-1.2-4.8-1.6-7.2-1.2l5.3,5.4c0.2,0.2,0.3,0.4,0.3,0.7
				v3.9c0,0.3-0.1,0.5-0.3,0.7l-4.5,4.4C23,27.9,22.8,28,22.5,28h-4c-0.3,0-0.5-0.1-0.7-0.3l-5.3-5.4c-0.9,6.3,3.5,12.3,9.8,13.2
				c2.5,0.4,5-0.1,7.2-1.3c0.5-0.3,1.1-0.1,1.4,0.3c0.3,0.5,0.1,1.1-0.3,1.4c0,0-0.1,0-0.1,0.1C28.5,37.1,26.2,37.6,24,37.6z"/>
			<path class="st0" d="M41,47.9c-1.8,0-3.6-0.7-4.9-2l-8.8-8.8c-0.4-0.4-0.4-1,0-1.4c0,0,0,0,0,0c0.4-0.4,1-0.4,1.4,0l8.8,8.8
				c1.9,1.9,5.1,1.9,7,0s1.9-5.1,0-7l-8.8-8.8c-0.4-0.4-0.3-1.1,0.1-1.4c0.4-0.3,0.9-0.3,1.3,0l8.7,8.7c2.7,2.7,2.8,7.1,0.1,9.8
				C44.6,47.1,42.8,47.9,41,47.9z"/>
			<path class="st0" d="M40.7,44.3c-2,0-3.6-1.6-3.6-3.6c0-2,1.6-3.6,3.6-3.6c1,0,1.9,0.4,2.6,1.1l0,0c1.4,1.4,1.4,3.7,0,5.1
				C42.6,43.9,41.6,44.3,40.7,44.3z M40.7,39.1c-0.9,0-1.6,0.7-1.6,1.6c0,0.4,0.2,0.8,0.5,1.1c0.6,0.6,1.6,0.6,2.2,0c0,0,0,0,0,0
				c0.6-0.6,0.6-1.6,0-2.3C41.5,39.3,41.1,39.1,40.7,39.1z"/>
		</g>
	</g>
</g>
</svg>
